<svg width="10" height="8" viewBox="0 0 10 8" fill="none" xmlns="http://www.w3.org/2000/svg">
<path d="M4.644 3.864C4.588 3.864 4.544 3.856 4.512 3.84C4.44 3.808 4.404 3.792 4.404 3.792C4.404 3.784 4.44 3.756 4.512 3.708C4.568 3.676 4.632 3.664 4.704 3.672C4.784 3.68 4.84 3.68 4.872 3.672C5.064 3.632 5.296 3.576 5.568 3.504C5.84 3.432 6.156 3.288 6.516 3.072L6.984 2.796C7.024 2.772 7.052 2.776 7.068 2.808C7.052 2.816 7.044 2.836 7.044 2.868C7.1 2.868 7.132 2.848 7.14 2.808C7.156 2.76 7.172 2.716 7.188 2.676H7.2L7.464 2.508C7.504 2.5 7.54 2.504 7.572 2.52C7.612 2.536 7.648 2.532 7.68 2.508C7.664 2.476 7.648 2.456 7.632 2.448C7.616 2.432 7.624 2.412 7.656 2.388L7.704 2.352C7.768 2.312 7.824 2.284 7.872 2.268C7.928 2.244 7.968 2.2 7.992 2.136C8.152 1.992 8.288 1.848 8.4 1.704C8.512 1.56 8.568 1.424 8.568 1.296C8.568 1.16 8.492 1.044 8.34 0.948C8.196 0.844 7.936 0.768 7.56 0.72L7.464 0.708C7.408 0.7 7.356 0.692 7.308 0.684C7.26 0.676 7.212 0.66 7.164 0.636C7.172 0.668 7.156 0.684 7.116 0.684C7.004 0.676 6.892 0.672 6.78 0.672C6.668 0.664 6.56 0.66 6.456 0.66C6.28 0.66 6.116 0.664 5.964 0.672C5.82 0.68 5.716 0.688 5.652 0.696L5.256 0.744C5.208 0.728 5.16 0.736 5.112 0.768H5.1C5.044 0.768 4.988 0.776 4.932 0.792C4.876 0.8 4.816 0.812 4.752 0.828C4.72 0.836 4.684 0.844 4.644 0.852C4.604 0.852 4.564 0.86 4.524 0.876L4.284 0.924C4.228 0.964 4.156 0.984 4.068 0.984H4.056L3.828 1.044H3.816C3.784 1.044 3.756 1.028 3.732 0.996C3.708 0.956 3.692 0.92 3.684 0.888C3.676 0.936 3.664 0.988 3.648 1.044C3.632 1.1 3.604 1.128 3.564 1.128L3.228 1.236C3.196 1.244 3.16 1.248 3.12 1.248C3.08 1.248 3.04 1.248 3 1.248C2.96 1.248 2.928 1.252 2.904 1.26C2.88 1.268 2.864 1.288 2.856 1.32C2.856 1.344 2.844 1.364 2.82 1.38C2.788 1.412 2.748 1.436 2.7 1.452C2.652 1.46 2.608 1.472 2.568 1.488H2.556C2.54 1.488 2.516 1.48 2.484 1.464C2.46 1.448 2.44 1.444 2.424 1.452C2.416 1.46 2.408 1.48 2.4 1.512C2.392 1.544 2.38 1.564 2.364 1.572V1.584C2.316 1.6 2.264 1.62 2.208 1.644C2.152 1.668 2.1 1.692 2.052 1.716C2.004 1.74 1.948 1.768 1.884 1.8C1.828 1.824 1.78 1.84 1.74 1.848C1.724 1.848 1.716 1.832 1.716 1.8C1.724 1.768 1.72 1.76 1.704 1.776C1.656 1.8 1.608 1.844 1.56 1.908C1.512 1.972 1.468 2.016 1.428 2.04C1.388 2.072 1.344 2.088 1.296 2.088C1.256 2.088 1.216 2.104 1.176 2.136C1.152 2.16 1.128 2.2 1.104 2.256C1.088 2.304 1.068 2.34 1.044 2.364C0.98 2.428 0.916 2.504 0.852 2.592C0.844 2.608 0.832 2.624 0.816 2.64C0.8 2.656 0.792 2.676 0.792 2.7H0.78C0.732 2.796 0.708 2.888 0.708 2.976C0.708 3.152 0.772 3.28 0.9 3.36C1.036 3.44 1.188 3.5 1.356 3.54C1.388 3.548 1.416 3.56 1.44 3.576C1.472 3.592 1.504 3.596 1.536 3.588C1.568 3.572 1.596 3.564 1.62 3.564C1.66 3.564 1.692 3.58 1.716 3.612L1.896 3.648C1.992 3.672 2.04 3.696 2.04 3.72C2.04 3.736 2.016 3.752 1.968 3.768C1.928 3.776 1.888 3.78 1.848 3.78C1.704 3.78 1.528 3.752 1.32 3.696C1.112 3.632 0.924 3.54 0.756 3.42C0.588 3.3 0.492 3.144 0.468 2.952C0.468 2.944 0.456 2.924 0.432 2.892C0.416 2.86 0.404 2.832 0.396 2.808C0.372 2.736 0.36 2.664 0.36 2.592C0.36 2.456 0.388 2.328 0.444 2.208C0.508 2.088 0.592 1.976 0.696 1.872C0.736 1.832 0.772 1.804 0.804 1.788C0.844 1.772 0.888 1.748 0.936 1.716C0.984 1.684 1.008 1.656 1.008 1.632C1.008 1.608 1.032 1.58 1.08 1.548C1.144 1.508 1.232 1.46 1.344 1.404C1.464 1.348 1.556 1.304 1.62 1.272C1.668 1.272 1.712 1.252 1.752 1.212C1.912 1.14 2.08 1.076 2.256 1.02C2.432 0.956 2.608 0.896 2.784 0.84C2.816 0.832 2.844 0.824 2.868 0.816C2.892 0.808 2.916 0.804 2.94 0.804C2.972 0.804 3.004 0.816 3.036 0.84C3.036 0.824 3.032 0.812 3.024 0.804C3.024 0.788 3.032 0.776 3.048 0.768C3.248 0.704 3.444 0.644 3.636 0.588C3.836 0.524 4.032 0.492 4.224 0.492H4.236C4.252 0.492 4.268 0.488 4.284 0.48C4.308 0.472 4.328 0.468 4.344 0.468H4.356L4.44 0.456C4.488 0.48 4.536 0.472 4.584 0.432C4.8 0.392 5 0.364 5.184 0.348C5.368 0.324 5.524 0.312 5.652 0.312H5.7C5.74 0.312 5.772 0.308 5.796 0.3H5.916C5.94 0.292 5.964 0.292 5.988 0.3C6.02 0.3 6.044 0.3 6.06 0.3H6.072C6.168 0.3 6.268 0.304 6.372 0.312C6.484 0.312 6.596 0.312 6.708 0.312H6.72C6.752 0.312 6.776 0.324 6.792 0.348C6.816 0.364 6.844 0.356 6.876 0.324C7.092 0.332 7.308 0.356 7.524 0.396C7.684 0.42 7.868 0.468 8.076 0.54C8.292 0.612 8.48 0.724 8.64 0.876C8.8 1.02 8.88 1.224 8.88 1.488C8.88 1.616 8.864 1.732 8.832 1.836C8.808 1.932 8.76 2.02 8.688 2.1C8.624 2.18 8.548 2.26 8.46 2.34C8.436 2.364 8.412 2.392 8.388 2.424C8.364 2.456 8.336 2.484 8.304 2.508C8.296 2.516 8.28 2.524 8.256 2.532C8.24 2.532 8.224 2.536 8.208 2.544C8.192 2.56 8.176 2.572 8.16 2.58C8.144 2.588 8.124 2.6 8.1 2.616C7.836 2.792 7.608 2.924 7.416 3.012C7.232 3.092 6.988 3.184 6.684 3.288C6.588 3.32 6.52 3.34 6.48 3.348C6.44 3.348 6.408 3.356 6.384 3.372C6.184 3.428 5.956 3.508 5.7 3.612C5.444 3.716 5.224 3.784 5.04 3.816C5.024 3.824 4.972 3.836 4.884 3.852C4.804 3.86 4.724 3.864 4.644 3.864ZM8.232 7.452C8.224 7.452 8.196 7.452 8.148 7.452C8.1 7.452 8.072 7.448 8.064 7.44C8.032 7.424 8.02 7.4 8.028 7.368C8.036 7.336 8.024 7.32 7.992 7.32C7.96 7.32 7.94 7.332 7.932 7.356C7.924 7.388 7.9 7.404 7.86 7.404H7.848C7.808 7.404 7.772 7.384 7.74 7.344C7.716 7.304 7.688 7.292 7.656 7.308C7.608 7.332 7.568 7.344 7.536 7.344C7.48 7.344 7.436 7.324 7.404 7.284C7.372 7.244 7.328 7.208 7.272 7.176C7.264 7.176 7.248 7.18 7.224 7.188C7.208 7.196 7.192 7.196 7.176 7.188C7.168 7.18 7.104 7.144 6.984 7.08C6.864 7.024 6.744 6.964 6.624 6.9C6.504 6.836 6.432 6.796 6.408 6.78C6.384 6.724 6.36 6.692 6.336 6.684C6.32 6.676 6.284 6.672 6.228 6.672C6.196 6.648 6.152 6.62 6.096 6.588C6.048 6.564 6.016 6.532 6 6.492C5.896 6.452 5.804 6.404 5.724 6.348C5.644 6.292 5.56 6.228 5.472 6.156C5.456 6.14 5.436 6.128 5.412 6.12C5.388 6.112 5.368 6.1 5.352 6.084L5.028 5.844C5.012 5.796 4.952 5.744 4.848 5.688C4.744 5.624 4.672 5.564 4.632 5.508C4.624 5.5 4.62 5.492 4.62 5.484C4.62 5.444 4.6 5.424 4.56 5.424C4.536 5.424 4.512 5.424 4.488 5.424C4.464 5.424 4.452 5.408 4.452 5.376C4.428 5.32 4.368 5.256 4.272 5.184C4.176 5.104 4.088 5.024 4.008 4.944C3.928 4.864 3.9 4.796 3.924 4.74C3.892 4.732 3.86 4.728 3.828 4.728C3.796 4.728 3.772 4.716 3.756 4.692C3.724 4.628 3.684 4.576 3.636 4.536C3.612 4.52 3.588 4.496 3.564 4.464L3.504 4.584C3.472 4.632 3.44 4.688 3.408 4.752C3.376 4.816 3.34 4.884 3.3 4.956L3.192 5.172C3.184 5.196 3.172 5.208 3.156 5.208C3.148 5.2 3.136 5.196 3.12 5.196C3.136 5.228 3.144 5.256 3.144 5.28C3.144 5.344 3.108 5.412 3.036 5.484C2.932 5.724 2.836 5.952 2.748 6.168C2.66 6.384 2.592 6.584 2.544 6.768C2.528 6.832 2.504 6.864 2.472 6.864C2.416 6.864 2.388 6.804 2.388 6.684C2.388 6.572 2.432 6.396 2.52 6.156L2.508 6.168C2.5 6.168 2.472 6.176 2.424 6.192C2.376 6.208 2.344 6.212 2.328 6.204C2.224 6.204 2.172 6.168 2.172 6.096C2.172 5.904 2.212 5.704 2.292 5.496L2.604 4.68C2.62 4.656 2.628 4.632 2.628 4.608C2.636 4.584 2.644 4.56 2.652 4.536L2.664 4.524V4.512L2.712 4.26C2.728 4.188 2.736 4.124 2.736 4.068C2.744 4.012 2.748 3.944 2.748 3.864C2.748 3.84 2.76 3.824 2.784 3.816C2.784 3.76 2.788 3.708 2.796 3.66C2.804 3.604 2.808 3.548 2.808 3.492V3.432C2.8 3.424 2.796 3.408 2.796 3.384C2.796 3.368 2.792 3.352 2.784 3.336C2.784 3.32 2.784 3.304 2.784 3.288C2.784 3.28 2.784 3.276 2.784 3.276C2.792 3.268 2.796 3.26 2.796 3.252C2.812 3.156 2.84 3.068 2.88 2.988C2.928 2.908 2.98 2.888 3.036 2.928C3.052 2.936 3.08 2.984 3.12 3.072C3.168 3.16 3.208 3.224 3.24 3.264C3.272 3.344 3.312 3.42 3.36 3.492C3.408 3.556 3.448 3.628 3.48 3.708C3.504 3.748 3.516 3.78 3.516 3.804C3.516 3.82 3.544 3.836 3.6 3.852C3.832 3.436 4.064 3.04 4.296 2.664C4.536 2.28 4.76 1.984 4.968 1.776L5.004 1.752L5.04 1.692C5.04 1.692 5.048 1.688 5.064 1.68C5.08 1.672 5.092 1.676 5.1 1.692C5.1 1.7 5.092 1.716 5.076 1.74C5.068 1.764 5.064 1.78 5.064 1.788C5.088 1.828 5.116 1.832 5.148 1.8C5.156 1.784 5.156 1.748 5.148 1.692C5.14 1.636 5.14 1.608 5.148 1.608C5.164 1.6 5.172 1.6 5.172 1.608C5.18 1.616 5.188 1.62 5.196 1.62C5.212 1.62 5.22 1.608 5.22 1.584C5.22 1.56 5.224 1.544 5.232 1.536C5.32 1.504 5.4 1.488 5.472 1.488C5.512 1.488 5.568 1.508 5.64 1.548C5.72 1.588 5.76 1.644 5.76 1.716C5.76 1.756 5.74 1.804 5.7 1.86C5.692 1.868 5.684 1.884 5.676 1.908C5.668 1.924 5.656 1.94 5.64 1.956C5.632 1.964 5.624 1.968 5.616 1.968C5.616 1.96 5.608 1.96 5.592 1.968C5.584 1.976 5.572 1.98 5.556 1.98C5.548 1.972 5.536 1.968 5.52 1.968C5.504 1.968 5.5 1.98 5.508 2.004C5.524 2.028 5.528 2.044 5.52 2.052C5.512 2.06 5.504 2.06 5.496 2.052C5.488 2.044 5.476 2.048 5.46 2.064C5.452 2.072 5.456 2.08 5.472 2.088C5.496 2.088 5.5 2.096 5.484 2.112C5.436 2.16 5.376 2.212 5.304 2.268C5.24 2.316 5.176 2.364 5.112 2.412C5.104 2.42 5.096 2.42 5.088 2.412C5.08 2.396 5.072 2.392 5.064 2.4L4.98 2.52C4.9 2.6 4.82 2.684 4.74 2.772C4.66 2.86 4.576 2.96 4.488 3.072C4.464 3.12 4.436 3.164 4.404 3.204C4.372 3.244 4.328 3.26 4.272 3.252C4.272 3.26 4.28 3.272 4.296 3.288C4.312 3.296 4.312 3.312 4.296 3.336C4.12 3.576 3.956 3.824 3.804 4.08L4.056 4.392C4.08 4.424 4.092 4.46 4.092 4.5C4.092 4.532 4.1 4.552 4.116 4.56C4.132 4.56 4.144 4.556 4.152 4.548C4.168 4.54 4.18 4.536 4.188 4.536C4.212 4.536 4.232 4.556 4.248 4.596C4.272 4.628 4.296 4.656 4.32 4.68C4.352 4.712 4.384 4.744 4.416 4.776C4.456 4.808 4.496 4.844 4.536 4.884V4.896C4.568 4.92 4.62 4.964 4.692 5.028C4.764 5.092 4.832 5.156 4.896 5.22C4.96 5.276 4.996 5.32 5.004 5.352C5.02 5.384 5.044 5.404 5.076 5.412C5.108 5.42 5.136 5.432 5.16 5.448C5.224 5.496 5.288 5.544 5.352 5.592C5.424 5.64 5.492 5.692 5.556 5.748C5.58 5.764 5.588 5.78 5.58 5.796C5.58 5.812 5.584 5.828 5.592 5.844C5.608 5.852 5.636 5.864 5.676 5.88C5.724 5.888 5.76 5.9 5.784 5.916C5.968 6.036 6.152 6.152 6.336 6.264C6.52 6.384 6.712 6.496 6.912 6.6C7.12 6.704 7.332 6.796 7.548 6.876C7.764 6.956 7.992 6.996 8.232 6.996C8.424 6.996 8.608 6.96 8.784 6.888C8.968 6.816 9.06 6.684 9.06 6.492C9.06 6.428 9.048 6.36 9.024 6.288C9.016 6.248 9 6.204 8.976 6.156C8.96 6.108 8.932 6.072 8.892 6.048C8.868 6 8.824 5.968 8.76 5.952C8.72 5.912 8.684 5.872 8.652 5.832C8.62 5.784 8.572 5.764 8.508 5.772C8.484 5.748 8.472 5.724 8.472 5.7C8.472 5.668 8.484 5.644 8.508 5.628C8.54 5.604 8.576 5.6 8.616 5.616C8.672 5.648 8.716 5.692 8.748 5.748C8.788 5.796 8.84 5.824 8.904 5.832L8.964 5.892C8.988 5.932 9.012 5.964 9.036 5.988C9.068 6.012 9.096 6.044 9.12 6.084C9.144 6.116 9.168 6.16 9.192 6.216C9.224 6.28 9.244 6.332 9.252 6.372C9.268 6.404 9.272 6.436 9.264 6.468C9.264 6.5 9.276 6.536 9.3 6.576C9.316 6.824 9.236 7.024 9.06 7.176C8.884 7.336 8.68 7.424 8.448 7.44C8.424 7.424 8.4 7.412 8.376 7.404C8.36 7.396 8.344 7.392 8.328 7.392C8.304 7.392 8.272 7.412 8.232 7.452ZM2.676 5.772C2.692 5.78 2.7 5.78 2.7 5.772C2.708 5.756 2.712 5.748 2.712 5.748C2.728 5.724 2.736 5.7 2.736 5.676C2.736 5.644 2.74 5.616 2.748 5.592C2.892 5.232 3.076 4.84 3.3 4.416C3.316 4.384 3.332 4.376 3.348 4.392C3.372 4.4 3.388 4.396 3.396 4.38C3.412 4.364 3.416 4.344 3.408 4.32C3.408 4.296 3.408 4.276 3.408 4.26C3.4 4.244 3.388 4.232 3.372 4.224C3.356 4.216 3.344 4.204 3.336 4.188C3.304 4.1 3.26 4.044 3.204 4.02C3.156 3.988 3.12 3.94 3.096 3.876C3.064 3.804 3.032 3.752 3 3.72C2.976 3.68 2.944 3.632 2.904 3.576L2.868 3.984C2.86 4.064 2.848 4.156 2.832 4.26C2.824 4.364 2.804 4.46 2.772 4.548C2.764 4.572 2.76 4.608 2.76 4.656V4.788C2.76 4.804 2.756 4.824 2.748 4.848C2.748 4.872 2.748 4.896 2.748 4.92L2.724 5.16C2.716 5.24 2.704 5.324 2.688 5.412C2.672 5.492 2.664 5.568 2.664 5.64C2.664 5.704 2.668 5.748 2.676 5.772Z" fill="black"/>
</svg>
