<!--?xml version="1.0" standalone="no"?-->
              <svg id="sw-js-blob-svg" viewBox="0 0 100 100" xmlns="http://www.w3.org/2000/svg" version="1.1">
                    <defs> 
                        <linearGradient id="sw-gradient" x1="0" x2="1" y1="1" y2="0">
                            <stop id="stop1" stop-color="rgba(106, 17, 203, 1)" offset="0%"></stop>
                            <stop id="stop2" stop-color="rgba(157.482, 128.497, 189.799, 1)" offset="100%"></stop>
                        </linearGradient>
                    </defs>
                <path fill="url(#sw-gradient)" d="M22.8,-35.2C30.1,-30.8,36.9,-25.4,40.4,-18.3C44,-11.1,44.3,-2.4,43.3,6.4C42.3,15.1,39.9,23.8,33.9,27.6C27.9,31.5,18.3,30.5,10.3,31.1C2.3,31.8,-4.2,33.9,-11.2,33.9C-18.2,33.8,-25.9,31.4,-32.2,26.5C-38.6,21.7,-43.7,14.4,-43.9,6.9C-44.1,-0.6,-39.3,-8.2,-34.7,-14.9C-30.1,-21.6,-25.7,-27.4,-20,-32.4C-14.2,-37.5,-7.1,-41.7,0.3,-42.2C7.8,-42.7,15.6,-39.5,22.8,-35.2Z" width="100%" height="100%" transform="translate(50 50)" stroke-width="0" style="transition: all 0.3s ease 0s;" stroke="url(#sw-gradient)"></path>
              </svg>